/* XPM */
static char *cd49556c0b354c15e7b0d5d3c011002fos9fKzYkSr8Fb2UV[] = {
/* columns rows colors chars-per-pixel */
"64 64 208 2 ",
"   c None",
".  c #111F39",
"X  c #19252D",
"o  c #162037",
"O  c #1C2334",
"+  c #15223B",
"@  c #1A253C",
"#  c #1B293B",
"$  c #17283A",
"%  c #2C2226",
"&  c #2C252A",
"*  c #29272D",
"=  c #362326",
"-  c #3A2426",
";  c #382827",
":  c #332529",
">  c #3D2728",
",  c #342A2B",
"<  c #3B2C2A",
"1  c #242634",
"2  c #2A2632",
"3  c #252834",
"4  c #2C2A34",
"5  c #242A3A",
"6  c #252539",
"7  c #302931",
"8  c #342934",
"9  c #363239",
"0  c #452626",
"q  c #4B2C27",
"w  c #412928",
"e  c #492D2A",
"r  c #542C27",
"t  c #48332D",
"y  c #573227",
"u  c #5F3026",
"i  c #583B2A",
"p  c #57372B",
"a  c #502F32",
"s  c #453037",
"d  c #44323A",
"f  c #553737",
"g  c #622F25",
"h  c #613126",
"j  c #62332C",
"k  c #693A28",
"l  c #743E27",
"z  c #793F27",
"x  c #723528",
"c  c #733928",
"v  c #743D33",
"b  c #6B4329",
"n  c #63412C",
"m  c #764428",
"M  c #674436",
"N  c #774939",
"B  c #172541",
"V  c #192642",
"C  c #1B2B43",
"Z  c #1C2C4B",
"A  c #172843",
"S  c #1E324C",
"D  c #193643",
"F  c #1F2F51",
"G  c #1F3152",
"H  c #1F3A54",
"J  c #212E44",
"K  c #2B2D46",
"L  c #222E4E",
"P  c #322F42",
"I  c #23334A",
"U  c #233A4E",
"Y  c #3C3C4A",
"T  c #343346",
"R  c #202F53",
"E  c #203355",
"W  c #223A56",
"Q  c #223659",
"!  c #243B5C",
"~  c #2D3A58",
"^  c #363E55",
"/  c #253E60",
"(  c #4A3947",
")  c #593F47",
"_  c #26425E",
"`  c #2C435E",
"'  c #3D4452",
"]  c #374155",
"[  c #264362",
"{  c #274966",
"}  c #284967",
"|  c #274B68",
" . c #294D6A",
".. c #284565",
"X. c #29526D",
"o. c #275368",
"O. c #2B5672",
"+. c #2C5974",
"@. c #2D5D78",
"#. c #314566",
"$. c #31697D",
"%. c #35687C",
"&. c #2F687D",
"*. c #524948",
"=. c #464A57",
"-. c #6E5549",
";. c #7E5A51",
":. c #7E675A",
">. c #5F5A6B",
",. c #494E66",
"<. c #615C6C",
"1. c #5F617D",
"2. c #6F6B6B",
"3. c #636077",
"4. c #797572",
"5. c #736A7A",
"6. c #813E27",
"7. c #924826",
"8. c #9D4B2F",
"9. c #975325",
"0. c #9D4B31",
"q. c #914B36",
"w. c #985238",
"e. c #87472B",
"r. c #B15E22",
"t. c #A55A39",
"y. c #A75838",
"u. c #B35E2F",
"i. c #AF6C2F",
"p. c #B06126",
"a. c #AF6838",
"s. c #C4641F",
"d. c #E6711C",
"f. c #E26F1C",
"g. c #C56A25",
"h. c #D56C21",
"j. c #C4663B",
"k. c #D07628",
"l. c #816658",
"z. c #BA6A42",
"x. c #AB7652",
"c. c #837978",
"v. c #C96947",
"b. c #D76D42",
"n. c #CC7746",
"m. c #D67B46",
"M. c #DA7947",
"N. c #E07C46",
"B. c #DF8A31",
"V. c #E68228",
"C. c #E38C30",
"Z. c #8E877C",
"A. c #9C8D7E",
"S. c #BA9E6E",
"D. c #AC847A",
"F. c #DE814C",
"G. c #C38855",
"H. c #DB8754",
"J. c #DD985A",
"K. c #E18A54",
"L. c #E28F58",
"P. c #E3965A",
"I. c #E5995C",
"U. c #E99A5A",
"Y. c #E0814B",
"T. c #E6AD44",
"R. c #E6B94A",
"E. c #C88667",
"W. c #C0977A",
"Q. c #E59E61",
"!. c #E99F61",
"~. c #C5A675",
"^. c #E5AA6A",
"/. c #E7C24D",
"(. c #E8C450",
"). c #3F7A89",
"_. c #3C7485",
"`. c #417C8B",
"'. c #7D7281",
"]. c #8B7C8A",
"[. c #837886",
"{. c #937E87",
"}. c #42818E",
"|. c #8F818C",
" X c #91818A",
".X c #988E81",
"XX c #9D9281",
"oX c #A49A85",
"OX c #AD9D8E",
"+X c #A39A88",
"@X c #B7A88F",
"#X c #BAAA8F",
"$X c #B6A78F",
"%X c #BAAB91",
"&X c #B7A991",
"*X c #BEB191",
"=X c #BEBE90",
"-X c #A9A388",
";X c #CBB58B",
":X c #C1B591",
">X c #C6BB93",
",X c #C9A882",
"<X c #C9C195",
"1X c #D4CD97",
"2X c #D7CC94",
"3X c #DAD599",
"4X c #D9D599",
"5X c #D9CD8F",
/* pixels */
"                                                                                                                                ",
"                                                    + + + +                                                                     ",
"                                                  C + Z H _ I                                                                   ",
"                                                + + + Q  .+.C                                                                   ",
"                                                    + + { @.O.H @                                                               ",
"                                                      + W } @.{ W I                                                             ",
"                                                      + Z E +.@.@.Z J                                                           ",
"                                                      + Z E / X.@.X.[ +                                                         ",
"                                                      @ Z Q !  .@.@.{ + +                                                       ",
"                                                      B Q ! !  .@.@.{ . +                                                       ",
"                                m r.r.r.m m           @ E ! ! [ } +.O._ H +                                                     ",
"                                m f.d.d.9.m           B Q ! ! ! ! O.+.+.[ +                                                     ",
"                            i b p.T.T.R.k.s.i       @ B Z Z F Q ! / { O. ._ I J                                                 ",
"                            i b g.R./.(.V.f.k       + B A Z F Q Q ! { +.O.X.W S                                                 ",
"                            i b g.R././.V.f.n       + A Z Z Q Q Q  .@.).`.}.}.%.+ + + + 3                                       ",
"                            t i 9.B.C.C.p.9.w     @ + G E Q ..} } O.+.%._.}.}.).o.o.o.o.U O 3 4                                 ",
"                            < t m h.h.h.e.m :   + @ B Q ! !  . . .X.O.O.%.).`._.$.$.$.&._ + o O                                 ",
"                                > u g g - % o + W _ _ [ ! Q E E E B @ + + + + + + + + + + + t                                   ",
"                                w q y c : * B A Q ! E G G L ( ( ( s s s s s s 9 + + . + @ 1                                     ",
"                                  ; y 7.& + G Q Q F + + + O q.0.8.0.8.8.8.0.8.e.+ + . + 4                                       ",
"                                  ; y 7.7 + + @ B @ + Q ! ` v.H.J.*.*.P.x.O S.S.+                                               ",
"                                  ; y 7.7 + + + + @ A ! #.,.v.K.Q.-.-.!.x.d ~.~.+                                               ",
"                                  ; y 7.7 + + + + C Q Q 1.[.v.K.Q.Q.Q.Q.P.M.^.~.+                                               ",
"                                  = q 6.: * 4   + C Q Q 3.].v.K.Q.Q.I.F.M.b.W.A.+                                               ",
"                                  % 0 x = ;     + A E E 3.].v.H.I.I.L.b.b.b.D.[.+ D                                             ",
"                                  % 0 x = ;     + + + + >.].{.E.K.~.;X5X5X5X#X.X@ + o                                           ",
"                                  % 0 x = ;   7 @ B B + ,.5.].D.E.,X>X1X1X1X>XoXC @ @                                           ",
"                                  % 0 x = >   + E Q ! + + @ [.|. X<X1X@X@X%X1X=X} S O                                           ",
"                                  % 0 x = 2 1 Z E Q [ E C C [.|. X&X:X%X:X1X>X-X[ W W O 4                                       ",
"                                  % 0 x = O + E E ! } _ Z C '.]. XOX%X%X>X4X:X+X! [ [ + 3                                       ",
"                                  % = e : O + @ B Z ! [ _ ! I 3. XOX*X1X4X3X:XXXB W _ @ 3                                       ",
"                                < p M N M f d + C S Z [ [ _ B <. XOX*X3X3X3X*XXX@ G ! Z 5                                       ",
"                              < O j.m.I.U.n.y.. ! W + [ [ _ A <. XOX*X4X4X3X*XXX@ Z E _ S + n                                   ",
"                              < O j.m.I.I.n.t.+ [ [ C G ! _ W ^ ^ .X%X:X<X3X2.=.G G E _ S + i                                   ",
"                              , O j.m.I.P.n.t.. { { Z Z ! _ _ S @ Z.&X@X:X3X=.C Q Q Q _ S + t                                   ",
"                              < O j.b.Y.N.q.f + { } Z B E _ _ S B >.c.@X&X*X' C Q Z B _ _ _ C 5                                 ",
"                              , O w.t.z.a.N a + { } Z @ S _ _ E Z =.2.$XoXZ.] S _ C @ _ _ _ B @                                 ",
"                              , X X 7 e : e a + { } Z + S _ _ _ _ C ' @Xc.B W _ _ C @ _ _ _ B @                                 ",
"                                , * > k ; 2 1 + { { B + Z Q Q ! _ C ' $X4.@ W _ _ C @ ! ! ! B @ <                               ",
"                                  % q m - O + + [ [ + + Z G E Q _ Z ' +X2.B ! _ ! C + E ~ ] T 9 ,                               ",
"                                  % q z - O + + G F + + + @ F Q _ _ _ [ ` _ _ W @ + + E :.J.J.G.O @                             ",
"                                  % e z - O + + F Z . 1 2 4 P T Y Y ' *.*.*.Y T 7 @ + E l.I.J.G.O @                             ",
"                                  % e z - O + + G Z o - r h u u u h m i.i.i.c h h 7 + E ;.F.m.z.O #                             ",
"                                  % e z - O + Z A @ + O 1 6 K K K K P 9 t p T T T # + E ) q.u.y.O #                             ",
"                                  % q z - O @ G B . + + + B Z F F F Z # 4 ; L E R B + G ( v y.w.O #                             ",
"                                  & e l - O + + + + + Z F F F ! _ E Q | _ L ! ! E A + + @ O 1 3 ;                               ",
"                                  & w c - 5 J J + + + F F E Q ! _ E Q X.[ F ! ! Q C + + O 1 3 2                                 ",
"                                  & w j ;       + + + F E E ! _ _ E ! +.{ F ! [ [ Z + + 2                                       ",
"                                  & > j ;       + B Z F F E ! _ _ ! [ +.} F ! [ [ G Z + 2                                       ",
"                                  & w j ;       + B E F R G ! _ [ [ { +.| F ! [ [ Q Z + 2                                       ",
"                                  % w j ;     @ + B R G F E ! _ _ _ { +.} F  .X.[ / ! + 1                                       ",
"                                  & w j =     + + A E E E E _ _ ! [ { +. .F X.X.[ [ ! + 1                                       ",
"                                  & w j =     + Z R F F Q _ [ Q F  .+.+.} F X.X.[ [ ! + + + ,                                   ",
"                                  : w j =     + Z F F F ! _ _ Q F  .+.+.} F X.O.} [ ! @ + +                                     ",
"                                  , w j = O + + Z F E E ! _ _ Q F  .+.+.} F X.+.+.} / + + +                                     ",
"                                  , w j = O + + Z F R ! [ [ Q G G  .+.+.} F Q ! +.} [ ! Z +                                     ",
"                                  , > u = O + B Z E F ! _ [ G E E | +.+.} F F Q +. .{ / Z +                                     ",
"                                  , - r = O + F R R E ! [ _ E E E  .+.O.{ F F Q +.+.O.[ S @ + $                                 ",
"                                  , - r = O + F F E ! _ ! ! G ! [ X.O.O.{ F F E [ X.+.} G @ + $                                 ",
"                                  , - q = O + R F Q [ _ ! F F { O.O.O.O.{ F F F F { +.+._ @ + $                                 ",
"                                  7 % = : O + + @ @ B B B @ @ B C C C C B B # # @ B C C B @                                     ",
"                                    & & & O @ # C C C C C C C C C C C C C C C C B B B C C C                                     ",
"                                                                                                                                ",
"                                                                                                                                "
};
