/* XPM */
static char *cc5af09563ef4a969a6f105ee3a311f168tmFuMOR27hot3r[] = {
/* columns rows colors chars-per-pixel */
"64 64 246 2 ",
"   c #1B141F",
".  c #23131F",
"X  c #0F1B2C",
"o  c #171A26",
"O  c #241420",
"+  c #291623",
"@  c #261A22",
"#  c #2C1B25",
"$  c #311D26",
"%  c #321D29",
"&  c #0B242E",
"*  c #06282D",
"=  c #0A2C2C",
"-  c #14272C",
";  c #09392E",
":  c #18342E",
">  c #0B2432",
",  c #072832",
"<  c #092B32",
"1  c #0A3432",
"2  c #073832",
"3  c #0A3A32",
"4  c #272728",
"5  c #352827",
"6  c #35212C",
"7  c #39232E",
"8  c #3C2C2B",
"9  c #2A342D",
"0  c #3C3C23",
"q  c #3B332A",
"w  c #363828",
"e  c #3C2631",
"r  c #3E2933",
"t  c #393636",
"y  c #442B2A",
"u  c #453523",
"i  c #4D3424",
"p  c #433B24",
"a  c #4C3B25",
"s  c #44322A",
"d  c #453B2A",
"f  c #4B3B2A",
"g  c #543525",
"h  c #583726",
"j  c #543A26",
"k  c #5B3927",
"l  c #553C29",
"z  c #5D3B28",
"x  c #422B35",
"c  c #462E36",
"v  c #4A3433",
"b  c #47363A",
"n  c #4C353B",
"m  c #573333",
"M  c #67352A",
"N  c #623E29",
"B  c #71372C",
"V  c #0B462F",
"C  c #154B2D",
"Z  c #0F582B",
"A  c #0B4531",
"S  c #094733",
"D  c #0B4C32",
"F  c #0C5433",
"G  c #0D5C35",
"H  c #0E5638",
"J  c #0E5D39",
"K  c #145837",
"L  c #115C34",
"P  c #2E4C25",
"I  c #354424",
"U  c #3B4424",
"Y  c #344C24",
"T  c #3B4B24",
"R  c #3A482B",
"E  c #2D5325",
"W  c #2E5C25",
"Q  c #2A582C",
"!  c #335325",
"~  c #3A5325",
"^  c #335B25",
"/  c #3B5B25",
"(  c #37592A",
")  c #304635",
"_  c #2A5634",
"`  c #385833",
"'  c #176C2B",
"]  c #0F6436",
"[  c #0E643A",
"{  c #0E6B39",
"}  c #116336",
"|  c #12653B",
" . c #116D3C",
".. c #1A6838",
"X. c #0F753D",
"o. c #12733D",
"O. c #1A753D",
"+. c #157A3E",
"@. c #2F6326",
"#. c #2D682A",
"$. c #336325",
"%. c #3B6326",
"&. c #356B26",
"*. c #3A6C25",
"=. c #35692C",
"-. c #29762E",
";. c #3C7326",
":. c #3E7926",
">. c #38752A",
",. c #2A6739",
"<. c #396537",
"1. c #297536",
"2. c #367B34",
"3. c #444424",
"4. c #4B4525",
"5. c #434C25",
"6. c #4B4B24",
"7. c #47482B",
"8. c #534225",
"9. c #54432B",
"0. c #5C432B",
"q. c #58492B",
"w. c #435324",
"e. c #4B5325",
"r. c #475A28",
"t. c #535527",
"y. c #434B37",
"u. c #584832",
"i. c #485735",
"p. c #585733",
"a. c #65412B",
"s. c #6A442C",
"d. c #67492F",
"f. c #73482D",
"g. c #684832",
"h. c #724B32",
"j. c #7B4E3A",
"k. c #6B5A31",
"l. c #795A37",
"z. c #476726",
"x. c #427525",
"c. c #497725",
"v. c #437C25",
"b. c #4C653A",
"n. c #6C6C34",
"m. c #7B723C",
"M. c #493B41",
"N. c #523B43",
"B. c #107841",
"V. c #177A42",
"C. c #147C41",
"Z. c #347744",
"A. c #474242",
"S. c #5A4249",
"D. c #5B4549",
"F. c #684D53",
"G. c #635354",
"H. c #6A5156",
"J. c #6D5459",
"K. c #73595D",
"L. c #4F6F46",
"P. c #487746",
"I. c #7A6041",
"U. c #765C60",
"Y. c #7C7D72",
"T. c #893A2E",
"R. c #CC383A",
"E. c #8C5036",
"W. c #B04C32",
"Q. c #8B6C38",
"!. c #AB6638",
"~. c #C94C36",
"^. c #D63D40",
"/. c #915743",
"(. c #B05846",
"). c #8F6945",
"_. c #91715B",
"`. c #D5524A",
"'. c #E4554F",
"]. c #D16C55",
"[. c #ED6B5B",
"{. c #EB7664",
"}. c #13803F",
"|. c #338139",
" X c #468225",
".X c #4A8425",
"XX c #4C8827",
"oX c #508932",
"OX c #6E8935",
"+X c #0F8143",
"@X c #138343",
"#X c #198544",
"$X c #158A45",
"%X c #198A46",
"&X c #158949",
"*X c #1B8C49",
"=X c #169149",
"-X c #1B944B",
";X c #1D9A4D",
":X c #1D9C51",
">X c #228947",
",X c #36864B",
"<X c #24984D",
"1X c #249C52",
"2X c #2D9954",
"3X c #349554",
"4X c #1EA554",
"5X c #21A24F",
"6X c #24A453",
"7X c #29A855",
"8X c #2DAC5A",
"9X c #35AB5B",
"0X c #28B35C",
"qX c #33B35C",
"wX c #38B65F",
"eX c #38B861",
"rX c #3BBC62",
"tX c #4B9553",
"yX c #61835B",
"uX c #43A35B",
"iX c #53A15E",
"pX c #758D71",
"aX c #46B865",
"sX c #52B266",
"dX c #3DC366",
"fX c #46C569",
"gX c #45CB6B",
"hX c #4FCA6F",
"jX c #4BCC6D",
"kX c #4CD171",
"lX c #57D574",
"zX c #61DC7C",
"xX c #61E17D",
"cX c #B2864E",
"vX c #83907B",
"bX c #D78C5F",
"nX c #F08D73",
"mX c #899B87",
"MX c #939693",
"NX c #82A081",
"BX c #95A595",
"VX c #A7ACA5",
"CX c #B0B9AF",
"ZX c #F89884",
"AX c #BAC3BC",
"SX c #BCC6C0",
/* pixels */
" X$.x.:.XX.X;.;.:.;.;.*.$.%.^ @.&.v.*.$.;.^ ^ v.&.E ! x.;. X;.$.&.:.v. X:.&.@.@.;.$.;.$.$.W &.x.^ $.$.x.T ^ &.&.@.$.$.&.v.XXXX X",
";.&.;.;.;.&.W Y $.#.&.&.~ 3.0 Y ! &.;.v.v.;.;.x.$.$.$.x.@.$./ ~ ^ $.;.;.:.$.$.*.$.W $.@.;.W W W P Y I w.p U ! @.@.E E &.$.;..X:.",
"$.;.$.^ ^ ^ Y 0 E E Y ! U i i p Y &.;.*.;.*.;.*.$.;.&.&.E I p 3.I Y / W ^ ^ / *.&.@.W *.;.;.$.W ! 0 u a i u 0 P @.P E $.&. X X$.",
"T $.^ Y 0 U u i p 0 0 u a k g 3.^ / / E ! &.;.$.@.$.! U 0 a i 0 u a 0 0 0 I 3.~ $.*.$.$.$.;.&.W ! u g j h h i U ! I E $.;..X;.$.",
"&.$.W I u i k s.a.j g g h h a ~ Y U U 0 Y $.;.W P U u i i k l f d f a i j u u ~ W @.@.Y U / $.E U i i i k h h i 0 u T U $.$.$.*.",
"@.W E U i N s.h.h.z h z z k g U 0 u u 0 ! $.$.P I u h h h l i.P.P.Z.<.7.l i U P E P U p p T U p i g g g z k h h i j a p U / ! $.",
"$.I ! / a z s.s.a.k k k a.a.k g i g g i p Y E 0 u j a.a.l 9.P.uX9X1X>Xb.u.l p w 0 0 i g i p u g h h h k N k j j k k k i p ~ U ! ",
"I 0 I I a k N z h h k j k k k k k k z N 8.` ` p i 9.p.i.<.Z.3XwXqX1X<XZ.i.i.y.R R p a j h h j N k k a j k 8.w.3.j 0.z k a 0 u 0 ",
"i i i i k k j 8.j g 8.4.j k N N k h k 0.i.tXtXi.3.b.iXsX9X9XwXeXqX1X-XV.O.Z.,X,X,.` ` 7.l N N z j a e.t.8.t.w.3.e.q.z N k g g i ",
"g h z N N k 6.z.r.a e.( a 0.a.l l a.u.i.P.aXaXZ.<.,XaXaXqXqXwXeXqX6X;X@Xo.C.1X1X%XV.V.O.i.0.s.a.k j 4.r.5.~ ~ T T j z a.a.h h h ",
"k N s.s.k k a ~ %.T ( Y T i.L.L.i.b.P.,XuXhXjXsXuX3X2X1X<X<X7XwXwX8X7X-X@X#X-X<X1X1X*XC.,.` i.q.l j p Y ^ Y U ! 0 i k z z k g g ",
"k N s.s.N k j p ! Y Y Y R P.sXuXZ.Z.2X9XrXjXkXhXfX9X*X%X#X#X1XqXwXqXqX1X$X$X%X-X8X8X-XC.+.O.1.,._ ` ` R U 0 u 0 u g k N N k g g ",
"h z a.N N N N j p 0 0 ` b.iXhXaX3X2XqXeXdXgXgXaXeX8X:X-X*X*X1X8X8X7X7X6X;X-X-X-X6X6X-X@X@X%X%X}.+.O.O.,.7.a g i h z a.s.a.z k j ",
"k k N z k z k h i u 7.iXhXzXxXkXaXrXgXjXgXdXrX6X<X6X0X0X;X-X-X-X-X-X-X6X0X7X-X-X$X$X@X@X$X6X7X<X%X#X@X#X,.y.0.z h z a.s.z g 4.6.",
"j k k j j g j l l 9.b.sXlXxXxXlXfXfXjXjXgXeXqX;X%X:X0X0X:X-X-X=X=X=X-X6X0X7X;X-X$X@X@X@X$X6X8X1X*X%X%X#Xo.,.i.a.z h h z h a e.5.",
"t.8.8.6.T 3.L.P.P.P.tXlXzXlXlXkXkXjXgXdXqX1X;X*X%X-X4X4X=X=X&X&X=X6X6X6X;X;X-X%XC.C.C.C.C.*X-X-X-X-X%X$X*X>XZ.` y.f i i i a r.%.",
"c.z.z.z.U i.iXhXaXaXhXzXxXlXjXkXkXkXdXeX7X%X%X%X%X*X-X-X&X@X+X@X&X6X8X<X%X%X%X#X+.o.o.o.o.V.V.*X:X-X%X%X1X6X<XV.| _ R d 5.~ %.;.",
" Xx.;.=.( P.sXkXjXfXjXlXlXkXgXgXgXfXeX8X1X%X%X#X@X%X=X=X@X@X+X@X#X1X6X-X@X@X@X@Xo.o.o.o.o.o.V.C.#X#X#X#X-X1X*XB.[ G K _ R ! *.v.",
"XXv.&.2.Z.3XjXkXkXjXjXjXjXjXgXfXwX8X-X$X$X$X#X@X@X@X@X@X+X+X+X+X@X#X#X@X+.+.+.o.o.o.o.o.o.o.o.| L | V.#X@XC.B. .[ | [ | _ _ %.c.",
".X:.2.|.3X9XjXkXjXjXgXgXgXfXfXrX8X7X*X@X#X@X@X}.+.C.@X+X+X+XB.B.C.C.C.+.+.+.+.+.o.o.o.o.o.o. .G F G C.@XC.o. .| | [ [ [ | _ ! *.",
":.tXtXuXeXrXfXdXeX8XqXrXrXqX8X6X;X-X$X@X@X+.o.o. .o.X.X.X.o.X.X.o. . .o.+X$X-X-X@XC.o.] ] ] } D V D +.@X .J G F F F F G [ | 1.-.",
"2.uXaXfXfXfXdXeX7X;X6X8XqX5X;X=X$X@X@X@XC.o. .} } }  .o.{ {  .{ { } } o.+X=X6X6X-X#X .G G L L V = V o.@X} F D D D D D F [ { >X<X",
":.tXuXaXaXaXrXwX1X*X-X6X6X-X%X$X@X@X@X}.X.{ { L L ] { { { { { { ] G L  .C.$X6X6X*X#Xo.] ] L G 3 = ;  .+.L D D A A A A F [  .2.2.",
".X X2.,X1X7XqXqX>X+.+.+.+.+.o.o.o.o.X.X.{ J G F D F G G G G G G G F D G { C.%X%XC.B.V.V.o.G F ; = 1 J | H D A 1 1 = = A  .1.>.$.",
":.&.>.|.>X<XqX8X%Xo. .o. . . . . . .{ { [ G F C C F F F F F F F F V V F [ o.@X#XB.o.C.#XV.G F ; = 1 H J F A 3 < < = = A ..2.v.&.",
";.$.*.=.1.1.2X1XV.} G F D D D F J J J J J F D V V A D D D D D D A 2 1 D G }  . . .{  . .| D A 1 & < A D A ; = < < 3 A Q #.>.&.$.",
">.;.:./ ~ =.,.>X..L C 3 1 = = ; D D D D D A V V A ; 3 3 3 3 3 3 2 < < 2 V D F F [ { G F D V ; = & & 3 3 = - - - : K ..#.$.^ ! %.",
"$.&.&.^ 0 Y U R 7.7.R 9 9 : = ; V A A A A ; ; ; ; 2 2 2 1 1 1 1 1 , , 1 ; V A D H J F A A ; ; = & & 3 3 9 9 q s s p Y ! %.Y ! $.",
"Y P Y / u i g g j j l l 9.7._ C 1 = < < < , , , , , , , , , , , , > > , < < < < 1 1 < < * * * & & = K _ f i h h i g u 0 ~ p 5./ ",
"i 0 0 p i k N k g g k a.s.a.u.) - & & , > & & & > > > > > > > > > > > > > > > > > & & & & & & & - : _ 9.h g k z k z k i p i i U ",
"h i i g k a.s.s.k h k a.a.s.d.d.f w 9 9 - o 9 9 9 9 9 9 9 X X X X X o 9 w w w w w 9 - X - 9 9 9 q f a g i h k k N a.N k j k h i ",
"h i g h k z N a.z k k h N f.h.s.N j u w 4 4 q u i g j j q @ o o o   @ d a 6.6.a 6.^ 9 o 4 d l l g i i g k a.z k N N k k z k g h ",
"N N N N z h h k k N N k h N a.N k g i p 5 5 f i h z z k u # O O O O @ u j 4.r.w.x.! w # 5 i N a.N k h k k z k g k k k k N z g h ",
"N N a.a.N N h g z s.a.z h h k k g g h l s 8 l l N s.s.N f 6 # # # + # q 3.T ^ E #.P w 6 8 g k z k k h h h k N k 8.4.j 8.N k g k ",
"k k z N N a.z k z a.N k k h h i i h k a.s y f j z s.a.z d 6 % % # # # q 0 P P I P I w 6 q g g g h k h h h k k j ~ 5.5.4.j j g g ",
"e.a 8.j k k k k h k h g k N N z h i g l s 6 8 y y v v c x e 7 7 % # # $ 6 5 8 r 8 8 6 $ s h h k k N k h j 8.j p ^ T T a k j 8.e.",
"z.r.r.3.a a p g h k h h a.s.s.s.N h g g s 8 8 7 e x x x x e 7 7 % % # # # % e e e 7 6 8 s l s.s.a.k h k j 5.~ P I u u j k 8.6.z.",
" Xx.x./ T / Y a z z h k N s.s.a.k j j 8.8.7.Y q e e e e e 7 7 7 7 % # + + + % % 6 6 s f i z s.s.N h g N z p Y P u i g g a e.r.^ ",
"v. X X&.$.@.! p h k k h k N z k j 6.w.5.5./ Q q 7 7 7 7 7 7 7 7 7 % # O O O # # # 5 f j g h k k h i g z s.k p 0 i k k i 5.z.c.*.",
"v.XX X;.v.;.^ p i h k k h g h k j 3.~ ! Y W Y 0 q 8 7 e e 7 7 7 7 % # + O O + # 5 s z N k h g i i i g h z z k h k N N a w.c. X;.",
"XXXX X.X X;.! u j k z s.a.z k N k g p Y U E Y ~ I d x x x e 7 7 7 % # + O O O 8 0.z k N s.N z h h z z h k k k k z N z i 3.z.c.;.",
"v.v.v.v.$.$.T u h k N s.h.s.z h h k i 0 0 I I I p f v c c r e 7 7 % # + O O O q a.k g k z z z N s.a.z h h g h a.s.N k p T w.c.XX",
"v.*.v.;.@.$.w.a g k s.h.f.a.k h h h g u u p u p j l v c n c e e 7 % # + O . . q k h h h h k N s.s.N k k k h z a.s.N j U ^ $.;.:.",
"XX X X:.*.^ / 6.i k a.s.s.N h h h i h k k h g j N 9.v n S.S.N.n c 7 $ + O . O q g N z h h z j k k k k N a.k k N z g u U $.$.$.v.",
"XX X:.v.E I U T i g h N z h h h g h k N s.N z a.s.0.v b F.J.F.F.N.e $ + O O O q h N k g k l 8.a j 8.8.k k g g g g i U E x.*.$.x.",
"v.&.&.*.E p u i i g h k h g h h g h h k z k z s.d.u.v n H.K.H.F.N.e % + O O O q i h i 8.8.6.( U 4.5.j j h h k k g i p U T / $.W ",
"z.Y ! T Y u h k k N N k h z a.a.h g g h h h h N a.9.v n H.K.H.F.S.e % + O . . 5 i h j 6.e.r.( U ( T 8.j g z a.s.z h i u T Y ^ E ",
"5.U ~ p u i h z N s.s.z N s.a.s.z h h N N k h h k f v n J.K.H.F.S.e % + . . . 5 g z j a r.n.n.R ! U 5.3.i g z a.k g i i Y E E I ",
"a a p u j k h k z N k h h z z z h g N s.a.k k h i d v n J.K.H.F.S.e % + . . . q l s.a.l 7.m.m.7.I 0 0 u i h g h g h h h u 0 0 u ",
"h k j g k N k h g h i i g h h h i a 0.a.k k z N z 9.v n J.K.H.H.S.e % + O O O q l a.0.a.h.cXcXt.p i i i z N k i h N N h i i i g ",
"k N N h h k j g i j 5.~ a k k j q.oXOXp.j h k N a.u.v n J.K.H.H.S.r % + . O + q j l 0.T.E.bXcXp.j h g h N N h h N a.N k k N z k ",
"k N N k j 8.e.6.j 6./ U a h k 8.p.OXOXQ.h.s.a.0.0.u.v n J.K.H.H.S.r % + O # s u.d.g.j.(.].bX].E.g.z j h k h h g h z h N a.s.a.z ",
"h k k h h a 3.~ 3.T Y 3.9.j j 0.k.OX!.W.~.~.W.l.p.u.b N.J.U.J.H.S.r % + O 5 k.Q.W.~.].nXnX[.[.].].j.l h k s.s.z g k g h a.s.z h ",
"g k k g g g a U Y I Y ~ 5.9.a.d.n.OXW.W.~.~.W.Q.n.p.b N.J.U.J.H.S.r % + O 5 k.Q.~.~.[.ZXnX[.[.[.{./.a.N s.h.s.s.h g g g h h g h ",
"h z N h i p 3.p 0 w P Y 9.g./.(.!.!.W.W.E.l.l.l.f.a.n N.J.U.J.H.S.r % + O # f a.T.W.].nX{.'.`.`.`.(././.g.s.s.N k i g k h g g h ",
"j k z h g u U a u u 0 a a./.].[.~.~.W.E.k.z.r.f.T.M n N.J.U.J.H.S.r % + . O 6 y B E.(.{.[.`.^.R.R.R.'.`.f.a.N h g i h a.N j 8.j ",
"z.4.j g a 6.4.j g h g h z l.cXcX!.Q.l.p.z.W ^ N B M n N.J.U.J.H.S.r % + . O # 8 h.E.(.].`.'.'.`.`.`.].].d.0.j h i i j z k 8.6.r.",
"c.~ 4.a 5.~ p g h h h h l p.OXOXoX X-.' ' Z C a M m n N.J.U.J.H.S.r % + . O # s ).).Q.E.W.'.[.nXnXbXcXcXQ.m.q.j j j j j a 4.T %.",
"c.%.w.3.z.3.i h k h z a.a.p.OXoXoX|.-.' Z C C a M m n N.J.U.J.H.S.r % + . O # 8 I.).l.B T.`.].bXbXcXQ.m.Q.m.q.k h j 8.t.p T ^ &.",
"*.*.%./ z.4.8.k N k k a.a.q.t.r.r.#...Z C ) t v m m n N.J.U.J.H.S.r % + . . @ 6 s f s y y B g.p.p.u.0.q.d.d.z z 8.e.e./ ~ %.*.$.",
"&.&.&.&.$.^ T a z k k k N k a a T Q Q K ) t b b b b n M.J.K.J.H.S.e % + . . @ # # # # # 6 5 R Y 4.q.j g j z a.0.3.~ ^ ! ;.*.&.$.",
"v.v.:.v.v.$.U f u.u.u.u.u.g.u.u.i.<.<._ _ ) y.y.y.y.y.y.G.J.H.H.S.e # + . @ t b b b M.M.M.A.i.` z.r.q.l 0.0.u.p.5.( =.=.;.&.;.*.",
";.v.v. X:.&.( L.vXmXmXmXMXBXBXBXBXBXBXyXZ.=.$.=.=.v.;.( y.S.D.G.S.r # + O t Y.MXMXMXMXMXMXMXmXpXpXpXY._.Y.pXvXpXyXL.pXyX&.;. X$.",
"&.;.$.;.*.&.=.pXCXSXAXAXAXAXAXAXAXAXAXCXpX<./ x.&.;.;.! y.N.D.G.D.r 6 # # M.MXVXVXVXVXVXVXVXVXVXVXVXVXVXVXCXCXCXNXNXAXpX=.*.v.~ "
};
