/* XPM */
static char *_009637a62a5465ed7a96096a2fbad31UY9CcESo3Z2iJOIi[] = {
/* columns rows colors chars-per-pixel */
"64 64 162 2 ",
"   c None",
".  c #112E2D",
"X  c #1C2F32",
"o  c #252D36",
"O  c #282E37",
"+  c #252E39",
"@  c #292F38",
"#  c #263237",
"$  c #26303C",
"%  c #2C323A",
"&  c #253B39",
"*  c #2C3D3B",
"=  c #31363C",
"-  c #353A3E",
";  c #393C3F",
":  c #33403D",
">  c #30573E",
",  c #2A643C",
"<  c #1F3249",
"1  c #1F3751",
"2  c #1E3954",
"3  c #1C3C5D",
"4  c #223243",
"5  c #21344A",
"6  c #22384F",
"7  c #373B40",
"8  c #3B3E41",
"9  c #203954",
"0  c #1B3E63",
"q  c #3E4042",
"w  c #365B40",
"e  c #1A4066",
"r  c #17436F",
"t  c #19426C",
"y  c #174673",
"u  c #184571",
"i  c #174876",
"p  c #184975",
"a  c #164B7C",
"s  c #184A79",
"d  c #16517F",
"f  c #434445",
"g  c #474847",
"h  c #494947",
"j  c #4C4C4A",
"k  c #524F47",
"l  c #514F4B",
"z  c #54524D",
"x  c #59554E",
"c  c #5E594D",
"v  c #575550",
"b  c #5A5650",
"n  c #5E5A51",
"m  c #5D5952",
"M  c #645E4F",
"N  c #645D4E",
"B  c #605B51",
"V  c #605B52",
"C  c #615C53",
"Z  c #615C52",
"A  c #625D53",
"S  c #655F51",
"D  c #655F53",
"F  c #655E53",
"G  c #665F53",
"H  c #655F54",
"J  c #635D53",
"K  c #67604F",
"L  c #676053",
"P  c #676152",
"I  c #676054",
"U  c #666054",
"Y  c #686153",
"T  c #686154",
"R  c #6A6355",
"E  c #6E6554",
"W  c #6E6654",
"Q  c #6B6454",
"!  c #706755",
"~  c #716852",
"^  c #726853",
"/  c #736A53",
"(  c #736954",
")  c #746A55",
"_  c #766B54",
"`  c #776D54",
"'  c #746B55",
"]  c #786E54",
"[  c #796E55",
"{  c #154E82",
"}  c #154E82",
"|  c #145185",
" . c #155286",
".. c #155784",
"X. c #165684",
"o. c #145487",
"O. c #155285",
"+. c #165885",
"@. c #165A85",
"#. c #155986",
"$. c #165B86",
"%. c #13538A",
"&. c #145388",
"*. c #14558A",
"=. c #13568E",
"-. c #14558B",
";. c #14598D",
":. c #145790",
">. c #135991",
",. c #135B93",
"<. c #135D93",
"1. c #135C93",
"2. c #15618F",
"3. c #146092",
"4. c #136096",
"5. c #136296",
"6. c #156B96",
"7. c #136399",
"8. c #13679B",
"9. c #146798",
"0. c #136599",
"q. c #13699A",
"w. c #146B99",
"e. c #146D9B",
"r. c #136D9C",
"t. c #146B9C",
"y. c #14709D",
"u. c #14729E",
"i. c #1575A1",
"p. c #1A75A2",
"a. c #157CA4",
"s. c #187DA6",
"d. c #1681A7",
"f. c #1881A7",
"g. c #1685A9",
"h. c #1984AA",
"j. c #1789AB",
"k. c #1A8BAD",
"l. c #1990AF",
"z. c #1C8EB1",
"x. c #1D93B3",
"c. c #1F98B5",
"v. c #228DB2",
"b. c #2196B6",
"n. c #2E95B6",
"m. c #209AB7",
"M. c #2797B9",
"N. c #259BBA",
"B. c #299DBA",
"V. c #26A1BE",
"C. c #29A2BE",
"Z. c #2BA5C2",
"A. c #2DABC6",
"S. c #2FAEC8",
"D. c #32A4C1",
"F. c #31ADC6",
"G. c #30AFC8",
"H. c #39B1C5",
"J. c #34B2C9",
"K. c #39B6CC",
"L. c #3BBACE",
"P. c #43BFD0",
/* pixels */
"                                                                                                                                ",
"                                                                                                                                ",
"                                                                                                                                ",
"                                                  o % % % % @ $ % % % % % % o                                                   ",
"                                              o % - n x x j q q b b b z z v % @ o                                               ",
"                                          o o 8 h j D D H n z h H H Z n n I f % o o o o                                         ",
"                                        o f h z z h l n Z V x f Z n n n m n f q f h j f % & #                                   ",
"                                    o @ = Z D D x f f b n z f 8 z l j j j j 7 h V W ^ L f - % o                                 ",
"                              o @ @ % % h Z L L z = = l z f % % 8 8 8 8 7 - % q M ` ` ] L j 8 o                                 ",
"                            o @ h b j - 8 z b z f o o o o @ @ @ @ @ @ @ @ @ @ 8 c ^ ( ^ _ D g @ o                               ",
"                            @ j b Z b f % f = % % o o @ @ 5 0 0 e e e 3 < @ @ @ % ; l _ R h q f f # o                           ",
"                          % q x n H I x o % @ @ 4 0 0 0 0 e r r r r u r e 0 0 0 5 @ - x g 8 l D V q % o                         ",
"                        o = q v V Z x f o o 5 1 3 y y y d ..$.$.$.$...d u u r r 3 5 @ 8 - f x R Y z - o                         ",
"                        = 8 8 z V z 8 @ o 4 e u a &.| ..9.r.y.e.t.e.q.3.a s i u r 0 5 4 @ q z D W Y j %                         ",
"                      o f z % - z 8 @ @ + r y y { ,.4.9.7.<.%.| | *.,.<.,.,.=.a y u r r 4 $ q b R H z - o                       ",
"                    o 8 z n h @ O o 5 e r y u O.4.t.9.7.4.4.4.7.7.9.9.7.7.7.<.<.O.y y u r 5 @ - n j f = O                       ",
"                    o h n R E l % o 6 r y y #.4.9.q.a a a s s s a *.4.r.h.k.t.<.>...u r r 5 o % h f N c h o                     ",
"                    % z n R ( 8 @ 6 e y y *.4.4.;.X.s a O.| *.*.*.>.4.9.i.a.h.s.y.3.y y y 0 6 @ - Z ` _ Y q o                   ",
"                  o - h z n D % o 3 y s O.<.4.;.| O.*.;.t.r.y.y.y.r.r.t.9.4.s.d.s.y.| s s y 3 o % Y ( _ W l o                   ",
"                  o ; 8 f j j % 4 3 y | <.,.&.| *.4.9.t.k.l.k.k.x.l.j.d.y.4.<.9.a.h.t.O.| a 0 4 @ j n R D j @                   ",
"                . o - - - 8 q @ 0 r a <.4.{ i #.t.i.j.l.l.k.x.x.c.c.x.x.l.s.q.4.q.a.g.7.<.a y 0 @ 8 z n n j %                   ",
"                # f D D j = @ @ 0 r a <.<.{ -.<.r.k.c.i.r.t.9.9.9.9.i.g.m.V.d.t.4.q.d.j.9.O.y 0 @ % j z l h % o                 ",
"                @ f D Q D j @ 3 r { ,.<.| >.4.i.g.k.i.9.9.q.t.t.t.t.t.r.s.z.j.j.r.4.y.k.9...i 0 @ @ q f f 8 % o                 ",
"                % q n I R c @ e y &.,.,.=.9.i.g.h.i.t.t.i.h.n.z.h.s.i.r.r.i.g.g.r.4.9.i.9.;.{ e @ o k c c z 8 o                 ",
"                @ f b n Z z @ e y &.=.=.<.q.h.k.a.7.9.a.k.B.H.m.c.x.j.s.i.r.i.i.i.t.<.<.r.4.-.e @ o K ] ] W h o                 ",
"                O 8 z z j 8 @ e y | &.a 7.9.k.j.i.9.i.m.V.Z.B.k.z.k.k.k.k.a.t.t.s.d.7.<.g.r.*.e $ o M _ ` ` j o                 ",
"                o % - - ; = @ e y &.*...u.l.l.i.9.y.x.m.x.a.<.<.<.>.<.p.V.x.9.<.y.g.s.,.a.t.;.a e @ z n D Y j o                 ",
"                % x x Z V j @ e i &.,.<.r.k.r.4.r.g.c.x.s.a.s.s.d.a.u.i.k.V.z.t.<.t.a.*.1.t.0.{ r @ - f h j 8 o                 ",
"                % n C W D j @ e | | &.<.9.g.9.<.r.x.d.i.a.k.C.C.m.C.k.s.a.h.x.s.r.t.a.&.;.u.e.{ r @ = - 8 8 % o                 ",
"                % n C R Z h @ e *.{ { <.q.g.0.4.i.c.r.t.h.N.F.V.N.G.N.z.a.i.f.z.s.i.a.&.,.a.y.{ r @ - f l h = @                 ",
"                = b n b b j @ e &.{ { <.i.a.4.q.d.b.,.r.b.Z.C.j.j.B.Z.Z.k.i.r.N.k.s.a.=.>.a.y.{ e % f D ( Y f @                 ",
"                % f b b v h @ e =.{ { 9.j.,.<.r.h.x.,.d.Z.V.g.g.g.d.b.Z.A.g.t.N.k.a.a.;.,.i.y.{ e % M ` ( Z n %                 ",
"                % f x b h - @ e =.*.&.4.j.;.=.e.h.x.,.s.Z.N.g.g.j.d.a.x.Z.g.9.N.z.a.a.7.<.i.y.| e % M ` ( H b %                 ",
"                @ ; q 8 - = @ e &.{ a 3.j.;.=.t.h.x.,.d.V.V.x.N.V.j.s.z.Z.d.7.N.z.s.a.;.,.u.y.{ e @ j D Q n f @                 ",
"                % x x z j f @ e | a a 1.j.;.=.t.h.x.,.d.V.N.z.Z.G.k.s.z.Z.g.7.M.z.a.u.%.,.i.e.a e @ 8 j b z 8 o                 ",
"                % R W R V j @ e { { | 3.j.1.=.0.h.c.<.d.N.C.C.J.G.k.s.x.Z.g.4.N.k.i.y.*.,.u.e.{ e @ - q h h - o                 ",
"                % R W W D j @ e s %.=.4.j.<.=.0.h.b.4.s.b.F.P.L.A.j.d.x.Z.g.9.N.k.u.u.=.<.a.e.{ e @ q f f f 8 o                 ",
"                % j n C C j @ e y { =.3.j.<.,.q.h.m.9.i.d.b.G.J.V.h.s.x.Z.d.9.M.j.y.i.=.<.i.6.a e % K _ ` ( b @                 ",
"                @ f b n n j @ e u { =.<.a.g.0.4.i.c.Z.i.i.f.z.c.d.a.b.N.s.r.t.k.f.i.y.*.,.t.2.i e % c D Z Z b @                 ",
"                % q f b z 8 @ e r { =.<.0.d.9.<.t.h.G.D.k.d.f.j.g.k.V.N.d.r.u.a.a.u.1.<.i.2.a u e @ f z b x z %                 ",
"                o = - q - % @ e r a *.,.,.a.y.t.9.y.v.N.N.N.B.B.V.N.b.k.i.t.h.h.s.y.;.4.a.;.i r e @ 8 j z j f %                 ",
"                o - q = % % @ e r s | =.>.y.a.i.9.7.r.s.b.Z.K.K.K.A.k.i.t.y.x.k.a.t.4.t.a.;.i u e @ - f j f - o                 ",
"                % C C j f 8 @ e r y { =.=.>.u.s.a.9.9.r.y.v.S.A.A.Z.s.q.i.k.x.g.t.1.y.g.s.;.a r e @ - q q q = o                 ",
"                % b n b j - @ 0 e r s %.4.>.<.r.s.d.t.t.y.f.c.k.j.a.i.a.g.l.a.t.9.9.9.i.9.*.a r e @ x H I n f o                 ",
"                % m b z j 8 + e u y a <.u...;.4.y.j.g.j.y.9.t.t.t.9.s.g.g.j.9.<.<.4.i.u.4.O.y r e @ c W ! R z o                 ",
"                % h z j f = @ 0 r y a =.q.9.1.<.9.y.j.l.s.a.d.h.h.f.k.k.s.a.4.>.1.4.u.q.*.a y u e @ c I I Z z o                 ",
"                O q j h q % @ 2 e y a -.<.q.<.;.>.4.a.s.a.d.j.k.j.d.g.d.y.e.>.<.9.e.t.4.&.s u e 2 @ l x z x h @                 ",
"                o 8 f 8 - % o o 0 y s | &.4.4.;.*.=.;.1.3.6.u.u.6.3.6.0.,.;.;.q.u.r.:.=.=.s u 3 @ o q f f f q o                 ",
"                o % - ; 8 - o @ e r u y i &.4.q.3.{ a s p p p p p p p a &.*.r.u.9.<.| { s y u 0 @ o - 8 8 8 ; o                 ",
"                @ q z b b h o @ e r r s ,.=.a | >.,.:.,.,.>.=.=.=.=.=.<.q.u.q.>.*.| s s y y r 0 @ o l n V n q o                 ",
"                % 8 h x b h o @ 0 r r y { &.*.| { a <.,.<.9.r.e.r.q.t.r.r.7.>.;.{ s u y | a y 0 o o l C V b h @                 ",
"                @ 8 8 h f 8 o o 5 0 r y y a | &.*.*.<.1.<.4.9.9.9.4.3.3.4.>.a a s y s &.%.s 0 5 o o f j h f f o                 ",
"                @ - = 8 - % o o o 3 r r r i a { =.,.<.,.1.<.<.<.;.| a { ....y r i a | *.{ y 2 o o o 8 8 - - = o X               ",
"              # % % % % % % % % o 9 0 e r u y i a | =.=.=.=.=.*.s r r r r r r y | =.*.y e 0 6 % % % = = % % % @ o               ",
"            8 f 8 l n m b b x f 8 % @ 4 r r r e r r r r e e e e e r r r r r y &.&.a u r + @ % f z v x b z 8 f z f =             ",
"            = q 8 8 z b n V n f 8 = % o @ @ @ @ @ @ @ @ @ @ @ @ @ $ @ @ @ @ @ $ $ @ @ @ o o % f b n b j f q z f ; %             ",
"            % - 8 8 f f g h h q 8 = = - q h l z z j z x z z z j x x x x z h h l z x z z 8 % % q g f f f q q w q = o             ",
"                    : ; = % % = - * * q f j m Z n x Z Z I I Z m Z L L D Z z x Z D Z n n f % % % = = % % : > , -                 ",
"                                      q f h b m z h b b H I n n m n n b b j z n n b z b f % @ @ o #                             ",
"                                                                                                                                ",
"                                                                                                                                ",
"                                                                                                                                ",
"                                                                                                                                ",
"                                                                                                                                "
};
