/* XPM */
static char *_6029495a06f42b6f2c1b1cd8a68e759TrszVtXuQfARcek5[] = {
/* columns rows colors chars-per-pixel */
"64 64 139 2 ",
"   c #3D3522",
".  c #353D22",
"X  c #3C3B23",
"o  c #462D22",
"O  c #492F23",
"+  c #443422",
"@  c #4D3224",
"#  c #443B24",
"$  c #4C3B24",
"%  c #543525",
"&  c #583726",
"*  c #543A25",
"=  c #5B3927",
"-  c #5E3B28",
";  c #623E29",
":  c #2E4423",
">  c #274B25",
",  c #2C4D24",
"<  c #344424",
"1  c #3B4323",
"2  c #334C25",
"3  c #3B4B24",
"4  c #275326",
"5  c #2B5425",
"6  c #265927",
"7  c #2C5B26",
"8  c #2F5628",
"9  c #2C5E29",
"0  c #335325",
"q  c #3B5326",
"w  c #345C25",
"e  c #3B5B25",
"r  c #375729",
"t  c #3C5229",
"y  c #315B28",
"u  c #3B5E2B",
"i  c #2E6326",
"p  c #2E6A27",
"a  c #266429",
"s  c #2B6429",
"d  c #2D6D29",
"f  c #326426",
"g  c #3A6325",
"h  c #346B27",
"j  c #3B6C26",
"k  c #336229",
"l  c #3B622B",
"z  c #346C29",
"x  c #396D29",
"c  c #2A772E",
"v  c #367127",
"b  c #397127",
"n  c #3D7325",
"m  c #397526",
"M  c #3E7627",
"N  c #3B7827",
"B  c #3C7826",
"V  c #3F7E27",
"C  c #337028",
"Z  c #367228",
"A  c #34722A",
"S  c #377628",
"D  c #3D7429",
"F  c #367A2D",
"G  c #387928",
"H  c #3D7B28",
"J  c #404723",
"K  c #434424",
"L  c #4B4325",
"P  c #404B24",
"I  c #434C25",
"U  c #4D4B23",
"Y  c #4C4C25",
"T  c #474728",
"R  c #4F4528",
"E  c #524325",
"W  c #5B4526",
"Q  c #534A24",
"!  c #594A26",
"~  c #534328",
"^  c #5C4328",
"/  c #534A29",
"(  c #5B4929",
")  c #445325",
"_  c #4B5224",
"`  c #405E24",
"'  c #445C25",
"]  c #4D5C25",
"[  c #435529",
"{  c #405E2C",
"}  c #555424",
"|  c #585125",
" . c #535C25",
".. c #5A5828",
"X. c #66412B",
"o. c #69442D",
"O. c #6B442D",
"+. c #6F482F",
"@. c #70472E",
"#. c #70482F",
"$. c #6D4730",
"%. c #734C31",
"&. c #784F34",
"*. c #785034",
"=. c #446225",
"-. c #4C6325",
";. c #426C25",
":. c #4C6D25",
">. c #426528",
",. c #536324",
"<. c #536A24",
"1. c #417525",
"2. c #4B7425",
"3. c #417B26",
"4. c #477925",
"5. c #477B24",
"6. c #427D27",
"7. c #477F25",
"8. c #447D26",
"9. c #4B7B25",
"0. c #4C7E24",
"q. c #457529",
"w. c #507525",
"e. c #517924",
"r. c #448027",
"t. c #478327",
"y. c #4A8324",
"u. c #4A8325",
"i. c #4D8324",
"p. c #4F8724",
"a. c #488826",
"s. c #4B8926",
"d. c #4E8925",
"f. c #4E8628",
"g. c #518625",
"h. c #508B24",
"j. c #538E25",
"k. c #549025",
"l. c #589124",
/* pixels */
"p.7 5.B k.h.m M V N B v f j 9 d h h.j 5 3., , i.h 5 < 5.m h.M i h V B d.B h i 6 3.i B k g 5 h y.7 j w 0.. i v v i g g f 8.h.j.t.",
"1.h n b 3.h s < d i j m 0 $ + 5 , h M t.t.M M t.5 j i y.6 i e q i g 3.N t.g w 1.9 7 k 5 6.5 7 9 , < < ' + < 5 p h 5 , h 7 b s.B ",
"k 3.f 7 7 f ,   4 5 < 5 < % @ + 2 h 6.j B h j j w 8.Z h 5 < + U < 2 k 6 9 7 g j m 7 5 1.H b f 5 w   + $ % o   , f , , v h y.s.i ",
"X g 9 < X < + @ + . X + * = & $ i w w 5 5 b 3.f i h 5 X . @ % < + $ X .   < @ 2 C G Z i f t.S 7 w + & - & = % < k . 9 i G k.N i ",
"b i 7 2 O @ = #.o.% & % & = % k , 1 J   3 i 8.5 4 . @ @ @ - - @ @ % @ % = @ @ e 6 d a : # k f 5 < @ O o = & = % < @ P X s h 9 N ",
"i i 6 X % X.+.%.%.- & ; - = % . X @ + X k i f , : @ & = = = = = = = & = - @ < > 5 , < + # 3 1 # % & % % ; = & & @ & $ + 1 g 2 d ",
"h X 5 j # ; +.@.X.= - = +.o.- % @ & % % X 2 5 .   = o.o.% = & X.& o & o.$.= + : X   @ & @ + + % & & = = ; = = = = - - % # g   9 ",
", o < , % = ; - % % = & = = = = = = ; X.& 1 1 + % - ; - % ; ; - ; = - %.%.X.% + @ @ & = & & & o.- - @ & = = { 3 % X.; = + 1 + X ",
"O % % @ = = * W * % = E & = X.; - % = ; X.% @ % O O O % & - +.o.- @ - +.o.; = @ & & O O = ; ; = & $ -. .= ..) + -.} = ; = % & @ ",
"% & - ; ; - Y :.,.@ ] p + ; o.& & X.X.X.; X.= @ % & = & O O @ - = % % % - - % @ - ; = & ; X.%.X.= & # j K t q ) 2 % ; +.o.& & = ",
"= X.+.+.= & + 5 D 3 k < t $ = % X.%.%.; @ & & % X.X.& @ O @ % @ ; +.; @ O @ % = %.%.+.; = ; X.; = & @ 5 g < 3 9 X % = = - = % @ ",
"& X.#.+.; = = X 5 0 0 : # * & o ; +.o.= O @ & ; ; ( l K @ % & & ; ; = = & ; +.; %.*.%.+.& @ & = & - = $ . < + < + @ & ; ; = % @ ",
"& - o.; ; ; ; & X <   < @ & = % @ = = @ % % & = ^ % 0 J F t % = O & % & ; ; ; ; = ; ; = ; ; = @ & o.o.; % @ % @ & ; +.%.o.; = = ",
"= & ; ; = ; = & % + % @ % ; +.X.= O @ @ & = - U -.L 5 ;.  $ * & % & % & % - o.%.+.% & & X.o.; - ; - - = = - X.; & - o.+.- @ $ I ",
"& = = & & & @ & - % @ = X.X.; ; ; = % & & ; X.* 3 e 5 x # q L = X.o.X.% @ = X.o.X.- @ % = ; = = - ; = & = X.+.+.- % & ; & * ,.J ",
"<.% = | 0 X @ & & - - X.+.o.; ; = % % & @ - o.= X , 5 a < X % = %.&.o.o.X.@ & = = & & - & & @ = % = = = = ; +.+.X.& % @ O @ ` g ",
"i.=.:.j + @ & = = ; % & X.%.%.+.= - - & & & & & @ + < 5 < @ - - X.o.; X.%.; % @ % = E ,.x * $ ,.k $ = X.= & - & @ - ; @ ) 2 ;.B ",
"y.B M h ) * - ; ; = = = & ; ; = ; +.%.+.= % o & & % @ X @ % - & = = = ; - ; o.X.= O + ) s u >.d + @ & o.= % % % % X.+.* + w j 8.",
"d.3.h h -.! = % % - = & @ = % @ = X.+.; = & @ & = = = & & % ; = X.+.o.% = o.+.X.& % % @ a 2 y 0 L E * = % O O @ = ; ; = @ 1 ' g.",
"d.m B h # * - X.& = & & O @ % o O & = & = +.+.; = = X.; = & = = o.%.%.; @ - ; ; = @ O % 5 4 5 X k 1 % - & % % & @ & = = # ) 1 h ",
"t.N B 7 @ = @ = - & ; +.X.% % & & % O = o.%.#.+.= - o.; = & O & X.%.o.- & O & - ; - & % + , . y . % X.- ; = % O I $ @ E # 5 b k ",
"8.v h 5 P Y $ O & o - ; = & % & * E E = = ; ; = = - & = = - @ @ ; ; ; = @ % = & +.#.+.- @ +   + % % = ; %.X.% o 0 z 1 <.7 5 h 6.",
"B t.b f 5.g I _ @ % % & O O % = @ Y l # } W = = X.X.& & ; o.= @ @ - & @ % ; ; ; +.#.+.; & % % & & O @ o.o.; & @ . a 9 8.9 B b n ",
"j.j.t.6.w 7 9 k @ = % O @ & = Q =.@ l 5 w.$ = & #.+.- & - ; & & % o o @ = ; %.o.; +.X.% = X.+.- @ = & - - ; = & + . i d i j.t.5 ",
"V h h t.5 i M 5 + o O & = ; = T i =.r a d I ,.$ = - & = = % & = = & & & % % ; & & = ; ; = ; X.= ; X.@ O = % O # g 7 9 4 9 t.d.v ",
"B i m g i i > > 1 @ = = X.%.+.& < 5 , 4 6 5 X = = = = ; +.+.X.= & & % % @ & ; ; @ @ - ; @ @ @ & - & % & - ; ; % < q 0 j v t.f k ",
"m N t.0 < v 3 . + = ; ; +.%.o.= + < 4 . < < O & ; - = o.*.%.+.% @ O @ & o.%.%.+.; % % % % % O O & ; X.% = ; X.- % @ < m f 5 < ;.",
"h b j w + 2 # + = ; - % & ; - = & @ + @ & - X.= = & & o.%.%.o.- o O % & +.+.o.X.X.& @ % o.o.& & o.&.%.o.@ = ; = & @ < 5 n , 0 k ",
"2 : , j O @ % & = = = & ; X.= = & ; ; X.@ X.#.&.X.@ o & - - ; ; % & ; % & +.; & & = % % @ = - ; #.+.%.o.& O = = @ & O   g o P f ",
"@   # X @ - X.& % % = X.%.; X.o.& = X.o.- = X.%.; % @ @ o % & & & o.+.+.& & % @ @ % & = = @ @ % ; X.o.X.% @ - ; & ; = % X % @ 1 ",
"= @ @ & = o.%.#.- & ; o.X.X.#.%.o.& & & ; % % - @ @ & & % @ % & +.%.#.%.- @ o % = T P - +.X.% O = - & @ O & - = X.+.; = = ; = @ ",
"& O @ & = - ; o.= = = % ; %.&.+.X.= O % = & @ o O & = = = = & & - ; #.o.* ] Y @ Q Z . & - = ; = & O O % = +.- & ; ; = = ; = @ & ",
"; ; X.; - % & = & X.; = & X.X.X.- % O % = - = @ & - - = @ ; +.+.- & % & = # :.J f.8 @ * = % ; +.; = & ; ; = ; @ = = = = X.; @ & ",
"X.; o.+.; ; % O ; +.+.; & @ = = % @ & X.+.+.+.= ; #.+.X.= & X.X.- & O O T J 9 4 c , P R ; & = - ; = & % & = ; = * T * W X.= @ - ",
"= = - - X.o.; = ; X.X.& = & % O O & ; +.+.X.; - ; #.o.X.& @ % = = - & @ < 6 4 . , < 5 $ = & % @ & = & % = = = * l P I 3 = = % @ ",
"_ @ Q * = = = = % = & O = X.X.- % @ @ - ; - = & & - ; & % & ; X.; & = = %   < + . X X & = = & = & o.- = & = * @ s 3 0 $ = & Q _ ",
"2._ ' # @ $ + % & - % % +.@.@.#.; % & @ @ % E $ & @ O - - @ @ o.+.& & = = & @ O @ @ % = % & %.%.X.= & - * [ 0 5 < + + = - * K 1.",
"d.M 3.i 1 j 2 @ ; ; & = ; +.o.X.& & = ^ W R x 2 = % & +.%.; % = & @ @ & o.X.& & ; - = = O - %.+.; & % ; ; + 2 4 o % % % $ ] ' 0 ",
"8.y.h.h i i 7 + = = = & = X.- - * Y [ 1 _ >.a   E U * X.#.X.& @ & = % @ = - & = ; X.- & % % = = & O % ; #.- + X @ = - @ ) =.8.j ",
"m k.t.v d.b s + O & - & & @ % & * 1 9 9 2 s < Q 0 $ = ; % & = % - +.; % O @ = = = = ; X.= & @ O o o @ % - ; - & = X.X.+ e y.d.b ",
"j.d.t.s.d.B 5 @ = - = +.X.- = o.- % o w X 6 3 k < % & & & % = - = = = ; = & = +.%.; - ; #.; ; % % - ; % = - = = = - ; @ # ,.5.m ",
"8.3.3.d.5 h 1 @ = = ; %.%.+.- & & - @ <   < 3 , @ - & % ; o.%.%.X.& & - - & ; %.o.= @ = ; - = X.+.o.- & & O & X.+.; = $ q J 2.j.",
"8.k 3.b 6 h ) * @ = +.%.#.+.; % & - & + + X +   & ; - = X.%.%.+.X.= % @ = % % = ; & & = % = ; +.+.; & = = % ; +.+.; = < i k M m ",
"h.h.y.B 1.5 j Y @ ; o.+.+.; & & & O & = & & @ & X.; & = ; o.+.o.; & @ & = = & & % ; ; % = ; & & = = = o.o.- - X.; % +   h i i y.",
"j.y.S s.> . 1 5 @ @ % ; ; & % = % & = X.%.X.- X.+.+.+.% & - ; = & @ % = ; %.%.X.& X.- @ = - ~ $ % Q Q = = @ @ O % @ < 6 9.M i 8.",
"8.f h b 5 + @ @ @ % % = % @ % & % % = = ; = ; +.%.+.o.- @ % = % O % = = ; +.o.- % & @ W = / z < W ) & = & % = = % @ # < X =.h 5 ",
"9.< 0 1 , @ & = = ; X.= & - o.o.& @ @ & & & & ; +.; - - ; @ O @ @ = X.& & ; ; % @ & @ _  .[ a   z 0 * = % ; o.#.; & % @ 3 < e 5 ",
"P 1 g # + O & ; X.%.+.- X.+.o.+.; & % ; ; = & @ ; & X.+.X.& & = = @ = = = = % o & - = $ w 5 4   s K ) 1 @ % ; +.= @ O % , s 5 : ",
"% % X + = = % = - ; - & % - - ; & @ X.%.+.* = = O O & ; = X.o.= O = & - = - & & ; +.X.& + 5 6 X < 1 X o O % @ % % & = & + .   o ",
"& = & % = ; = % % & @ @ % & % % o @ = ; & & ; ; - - ; & = ; ; & = +.o.= = = & = ; X.X.= & O . X X o @ @ ; o.- O % X.; % @ @ @ & ",
"= ; ; = % = & % @ & [ u $ - = & & @ & = O % = X.o.%.#.X.= & @ O X.%.o.; @ O % = % = = = - & @ + & & % - ; ; = & ; o.; = = ; - = ",
"- X.X.= & L <.Y * } k 1 * & = = - % % & & - @ & X.o.X.X.= - & % = & % % @ = +.X.; ; @ O & ; - = = = & & = & @ O = - & ; X.+.o.; ",
"& = = % = % 1 w # 2 , $ ( @ % = ; +.+.& - +.- @ & = - = X.+.#.& @ @ & & = ; +.+.o.; @ & - +.o.= & @ & & & +.#.- @ ; % % o.+.- & ",
"@ = - % % = @ < 0 1 < e q # = ; +.+.X.X.& = - = @ @ % ; @.%.X.- & & & - & = +.o.& & = +.+.; ; & & X.& - +.%.%.@.& @ @ % % & @ & ",
"& ; X.% o # P + < . , , @ & % = X.o.; = @ & = - & % & = - = % - & % % % % % = - @ % ; o.+.; & @ & - % ; X.+.o.; - % % = & % % = ",
"% = - & & @ < * + + + * ; o.; & = o.- O & %.+.= & % @ @ % X.- % @ ; ; X.X.; = & o O @ @ X.; = % & & O @ o.X.; = % O & o.o.% E * ",
"w.# = % * Y Y * & & & & = +.X.- & % O % ; +.o.* _ ! * K l * = = & = o.#.%.o.& & * $ & & = - - = & & ; & @ & = & O % = ; = E } _ ",
"9.3 U + ) y + & & & % & & - - ; & & & = - +.o.* q ' Y Z # * Q * = @ - o.o.& % @ Y ,.* & $ L % ! P * = & @ & @ & = * E * + ) X h ",
"g.k Y $ w.# @ & = & ; +.; = X.%.& * L * = ; * ) w ' =.w @ _ I $ = = % = = % & & + ) Y % ,.L Q q.3 $ = % X.o.; & % * E  .+ 3 w h ",
"h v ;.0 2.* ! - X.* = o.+.; = = & $ + ,.= = @ 1 5 f h i 2 0 # & = ; X.@ O @ = = L T P ' y.3 -.9 + & = = ; ; = ; ^  .Y j , g B i ",
"h h f h k k 3 @ ; - & = X.= @ = E q < :.g L % X f h i 9 i 2 3 . @ ; ; = & % @ # e.P j j B i h . L ! * % & ; X.; # w w , y.h h f ",
"6.y.B 6.h.i X @ % % R L & - & @ < k e 0 f e 1 0 b t.b f 4 5 1 + T $ U + O $ R 1 j w n h.8.x 9 < ;.=.E @ = - * | 3 0 h 9 3.k 3.v ",
"M t.6.d.B Z 0 K Q Y q . % - % T < g 1.h i M j 1.b l.y.5 h 9 , q 0.' q # ) 1 ) 1.i M M d.i x z 6 s + & ; - @ $ =.j 2 m t.i b d.w ",
"f b i m h v h 0 ;.k 1 ) _ & # 0 Z i 3.p., w 0 9.f B b , n 6 k h 6.8.0 0 x w X 1.i 6 9 i.5 i z f # & % = & # 3 n h k n 9 5 v t.3 "
};
